<?xml version="1.0" encoding="UTF-8" standalone="no"?>
<!-- Created with Inkscape (http://www.inkscape.org/) -->

<svg
   xmlns:dc="http://purl.org/dc/elements/1.1/"
   xmlns:cc="http://creativecommons.org/ns#"
   xmlns:rdf="http://www.w3.org/1999/02/22-rdf-syntax-ns#"
   xmlns:svg="http://www.w3.org/2000/svg"
   xmlns="http://www.w3.org/2000/svg"
   xmlns:sodipodi="http://sodipodi.sourceforge.net/DTD/sodipodi-0.dtd"
   xmlns:inkscape="http://www.inkscape.org/namespaces/inkscape"
   version="1.1"
   id="svg4504"
   xml:space="preserve"
   width="1226.6667"
   height="341.19333"
   viewBox="0 0 1226.6667 341.19333"
   sodipodi:docname="polyform-logo.svg"
   inkscape:version="0.92.1 r15371"><metadata
     id="metadata4510"><rdf:RDF><cc:Work
         rdf:about=""><dc:format>image/svg+xml</dc:format><dc:type
           rdf:resource="http://purl.org/dc/dcmitype/StillImage" /><dc:title></dc:title></cc:Work></rdf:RDF></metadata><defs
     id="defs4508"><clipPath
       clipPathUnits="userSpaceOnUse"
       id="clipPath4560"><path
         d="M 0,255.895 H 920 V 0 H 0 Z"
         id="path4558"
         inkscape:connector-curvature="0" /></clipPath><clipPath
       clipPathUnits="userSpaceOnUse"
       id="clipPath4632"><path
         d="M 0,255.895 H 920 V 0 H 0 Z"
         id="path4630"
         inkscape:connector-curvature="0" /></clipPath></defs><sodipodi:namedview
     pagecolor="#ffffff"
     bordercolor="#666666"
     borderopacity="1"
     objecttolerance="10"
     gridtolerance="10"
     guidetolerance="10"
     inkscape:pageopacity="0"
     inkscape:pageshadow="2"
     inkscape:window-width="1598"
     inkscape:window-height="881"
     id="namedview4506"
     showgrid="false"
     inkscape:zoom="0.91793472"
     inkscape:cx="613.33337"
     inkscape:cy="170.59666"
     inkscape:window-x="0"
     inkscape:window-y="0"
     inkscape:window-maximized="0"
     inkscape:current-layer="g4512" /><g
     id="g4512"
     inkscape:groupmode="layer"
     inkscape:label="AI"
     transform="matrix(1.3333333,0,0,-1.3333333,0,341.19333)"><g
       id="g4514"
       transform="translate(887.1989,78.0121)"><path
         d="m 0,0 h -9.039 -1.004 -36.494 v 46.515 h -3.036 V 0 H -95.714 V 46.515 H -98.75 V 0 h -11.915 -2.944 -31.112 v 92.682 h 12.323 v 0 h 14 2.996 H -9.111 -8.103 0 Z m -148.251,46.389 h -48.469 l -0.026,-0.048 V 0 h -12.273 -1 -32.689 v 92.682 h 33.146 1.002 60.309 z M -245.744,0 h -99.568 v 92.682 h 99.568 z m -102.603,95.717 h -48.519 v -3.035 h 48.519 V 46.389 h -48.42 V 0 h -15.35 -0.797 -30.215 v 139.25 h 32.146 0.797 61.839 z m -97.817,-143.432 h -15.926 -1.493 -44.779 -0.057 -33.646 v 44.703 h 48.866 V 0 h -16.48 -0.992 -31.394 v 92.682 h 46.492 V 43.996 h 3.036 v 48.686 h 27.917 1.502 16.954 z M -545.101,0 h -46.291 v 139.25 h 46.291 z m -49.326,0 h -100.95 v 92.681 h 100.95 z m -103.986,46.996 h -76.194 V 0 h -78.464 v 139.25 h 154.658 z M -7.877,95.717 h -1.009 -106.84 -2.995 -13.677 v 0 h -76.158 -1.002 -135.753 v 46.533 h -64.937 -0.775 -35.141 V 95.717 h -16.892 -1.508 -44.413 -18.222 -14.866 v 46.533 h -52.392 v -2.213 h 0.03 V 95.717 H -695.378 V 142.25 H -856.106 V -3 h 84.535 v 46.96 h 73.158 V -3.012 h 153.312 V -50.75 h 36.978 0.01 44.703 1.508 18.773 V -3 h 30.258 0.79 18.2 v 46.353 h 45.534 V -3 h 138.308 1 15.329 v 46.353 h 45.953 V -3 h 34.157 2.975 100.566 0.997 12.098 v 98.717 z"
         style="fill:#000000;fill-opacity:1;fill-rule:nonzero;stroke:none"
         id="path4516"
         inkscape:connector-curvature="0" /></g><g
       id="g4518"
       transform="translate(887.1989,78.0121)"><path
         d="m 0,0 h -9.039 -1.004 -36.494 v 46.515 h -3.036 V 0 H -95.714 V 46.515 H -98.75 V 0 h -11.915 -2.944 -31.112 v 92.682 h 12.323 v 0 h 14 2.996 H -9.111 -8.103 0 Z m -148.251,46.389 h -48.469 l -0.026,-0.048 V 0 h -12.273 -1 -32.689 v 92.682 h 33.146 1.002 60.309 z M -245.744,0 h -99.568 v 92.682 h 99.568 z m -102.603,95.717 h -48.519 v -3.035 h 48.519 V 46.389 h -48.42 V 0 h -15.35 -0.797 -30.215 v 139.25 h 32.146 0.797 61.839 z m -97.817,-143.432 h -15.926 -1.493 -44.779 -0.057 -33.646 v 44.703 h 48.866 V 0 h -16.48 -0.992 -31.394 v 92.682 h 46.492 V 43.996 h 3.036 v 48.686 h 27.917 1.502 16.954 z M -545.101,0 h -46.291 v 139.25 h 46.291 z m -49.326,0 h -100.95 v 92.681 h 100.95 z m -103.986,46.996 h -76.194 V 0 h -78.464 v 139.25 h 154.658 z M -7.877,95.717 h -1.009 -106.84 -2.995 -13.677 v 0 h -76.158 -1.002 -135.753 v 46.533 h -64.937 -0.775 -35.141 V 95.717 h -16.892 -1.508 -44.413 -18.222 -14.866 v 46.533 h -52.392 v -2.213 h 0.03 V 95.717 H -695.378 V 142.25 H -856.106 V -3 h 84.535 v 46.96 h 73.158 V -3.012 h 153.312 V -50.75 h 36.978 0.01 44.703 1.508 18.773 V -3 h 30.258 0.79 18.2 v 46.353 h 45.534 V -3 h 138.308 1 15.329 v 46.353 h 45.953 V -3 h 34.157 2.975 100.566 0.997 12.098 v 98.717 z"
         style="fill:#000000;fill-opacity:1;fill-rule:nonzero;stroke:none"
         id="path4520"
         inkscape:connector-curvature="0" /></g><g
       id="g4522"
       transform="translate(749.9912,163.1492)"><path
         d="m 0,0 v -31.249 h 30.947 v 10e-4 h 18.046 v -10e-4 h 31.142 v 0.083 h 18.036 v -0.083 h 31.537 V 0 Z"
         style="fill:#ef20db;fill-opacity:1;fill-rule:nonzero;stroke:none"
         id="path4524"
         inkscape:connector-curvature="0" /></g><path
       d="m 848.162,85.468 h 31.537 v 46.433 h -31.537 z"
       style="fill:#c414bc;fill-opacity:1;fill-rule:nonzero;stroke:none"
       id="path4526"
       inkscape:connector-curvature="0" /><g
       id="g4528"
       transform="translate(749.9775,85.4676)"><path
         d="M 0,0 H 30.962 L 30.961,46.433 H 0.014 Z"
         style="fill:#f456ec;fill-opacity:1;fill-rule:nonzero;stroke:none"
         id="path4530"
         inkscape:connector-curvature="0" /></g><g
       id="g4532"
       transform="translate(798.9854,85.4676)"><path
         d="M 0,0 H 31.141 V 46.433 H -0.002 Z"
         style="fill:#c414bc;fill-opacity:1;fill-rule:nonzero;stroke:none"
         id="path4534"
         inkscape:connector-curvature="0" /></g><path
       d="m 830.126,131.9 h 18.036 v 0.083 h -18.036 z"
       style="fill:#c414bc;fill-opacity:1;fill-rule:nonzero;stroke:none"
       id="path4536"
       inkscape:connector-curvature="0" /><path
       d="m 780.938,131.9 h 18.046 v 0.001 h -18.046 z"
       style="fill:#c414bc;fill-opacity:1;fill-rule:nonzero;stroke:none"
       id="path4538"
       inkscape:connector-curvature="0" /><path
       d="m 749.991,131.9 h 30.947 v 31.293 h -30.947 z"
       style="fill:#c414bc;fill-opacity:1;fill-rule:nonzero;stroke:none"
       id="path4540"
       inkscape:connector-curvature="0" /><g
       id="g4542"
       transform="translate(682.9531,131.9004)"><path
         d="M 0,0 H 48.495 V 31.293 H -30.962 V -46.389 H 0 v 46.341"
         style="fill:#2fbeea;fill-opacity:1;fill-rule:nonzero;stroke:none"
         id="path4544"
         inkscape:connector-curvature="0" /></g><g
       id="g4546"
       transform="translate(651.9912,163.1934)"><path
         d="m 0,0 v -29.184 -2.109 H 30.947 V -17.695 0 Z"
         style="fill:#2daaf7;fill-opacity:1;fill-rule:nonzero;stroke:none"
         id="path4548"
         inkscape:connector-curvature="0" /></g><path
       d="m 549.388,163.193 h 84.567 V 85.511 h -84.567 z"
       style="fill:#ff8d40;fill-opacity:1;fill-rule:nonzero;stroke:none"
       id="path4550"
       inkscape:connector-curvature="0" /><path
       d="m 575.388,155.193 h 32.567 v -27.932 h -32.567 z"
       style="fill:#e57123;fill-opacity:1;fill-rule:nonzero;stroke:none"
       id="path4552"
       inkscape:connector-curvature="0" /><g
       id="g4554"><g
         id="g4556"
         clip-path="url(#clipPath4560)"><g
           id="g4562"
           transform="translate(591.5634,129.5737)"><path
             d="m 0,0 c 6.528,0 11.839,5.311 11.839,11.839 0,6.528 -5.311,11.839 -11.839,11.839 -6.528,0 -11.839,-5.311 -11.839,-11.839 C -11.839,5.311 -6.528,0 0,0"
             style="fill:#000000;fill-opacity:1;fill-rule:nonzero;stroke:none"
             id="path4564"
             inkscape:connector-curvature="0" /></g><g
           id="g4566"
           transform="translate(591.5624,132.0749)"><path
             d="m 0,0 c -5.149,0 -9.338,4.189 -9.338,9.338 0,5.149 4.189,9.338 9.338,9.338 5.149,0 9.338,-4.189 9.338,-9.338 C 9.338,4.189 5.149,0 0,0"
             style="fill:#ffffff;fill-opacity:1;fill-rule:nonzero;stroke:none"
             id="path4568"
             inkscape:connector-curvature="0" /></g><path
           d="m 549.388,163.193 h 84.567 V 85.511 h -84.567 z"
           style="fill:#ff8d40;fill-opacity:1;fill-rule:nonzero;stroke:none"
           id="path4570"
           inkscape:connector-curvature="0" /><path
           d="m 575.388,155.193 h 32.567 v -27.932 h -32.567 z"
           style="fill:#e57123;fill-opacity:1;fill-rule:nonzero;stroke:none"
           id="path4572"
           inkscape:connector-curvature="0" /><g
           id="g4574"
           transform="translate(591.5634,129.5737)"><path
             d="m 0,0 c 6.528,0 11.839,5.311 11.839,11.839 0,6.528 -5.311,11.839 -11.839,11.839 -6.528,0 -11.839,-5.311 -11.839,-11.839 C -11.839,5.311 -6.528,0 0,0"
             style="fill:#000000;fill-opacity:1;fill-rule:nonzero;stroke:none"
             id="path4576"
             inkscape:connector-curvature="0" /></g><g
           id="g4578"
           transform="translate(591.5624,132.0749)"><path
             d="m 0,0 c -5.149,0 -9.338,4.189 -9.338,9.338 0,5.149 4.189,9.338 9.338,9.338 5.149,0 9.338,-4.189 9.338,-9.338 C 9.338,4.189 5.149,0 0,0"
             style="fill:#ffffff;fill-opacity:1;fill-rule:nonzero;stroke:none"
             id="path4580"
             inkscape:connector-curvature="0" /></g><path
           d="m 607.955,127.262 h -32.567 v 27.932 h 32.567 z m -58.567,-41.75 h 84.567 v 77.682 h -84.567 z"
           style="fill:#ff8d40;fill-opacity:1;fill-rule:nonzero;stroke:none"
           id="path4582"
           inkscape:connector-curvature="0" /><g
           id="g4584"
           transform="translate(591.5634,153.2513)"><path
             d="m 0,0 c 6.528,0 11.839,-5.311 11.839,-11.839 0,-6.528 -5.311,-11.839 -11.839,-11.839 -6.528,0 -11.839,5.311 -11.839,11.839 C -11.839,-5.311 -6.528,0 0,0 M -16.176,-25.99 H 16.391 V 1.942 h -32.567 z"
             style="fill:#e57123;fill-opacity:1;fill-rule:nonzero;stroke:none"
             id="path4586"
             inkscape:connector-curvature="0" /></g><g
           id="g4588"
           transform="translate(591.5624,150.7505)"><path
             d="m 0,0 c 5.149,0 9.338,-4.189 9.338,-9.338 0,-5.149 -4.189,-9.338 -9.338,-9.338 -5.149,0 -9.338,4.189 -9.338,9.338 C -9.338,-4.189 -5.149,0 0,0 m 0.001,-21.177 c 6.528,0 11.839,5.311 11.839,11.839 0,6.528 -5.311,11.839 -11.839,11.839 -6.528,0 -11.839,-5.311 -11.839,-11.839 0,-6.528 5.311,-11.839 11.839,-11.839"
             style="fill:#000000;fill-opacity:1;fill-rule:nonzero;stroke:none"
             id="path4590"
             inkscape:connector-curvature="0" /></g></g></g><g
       id="g4592"
       transform="translate(531.3525,181.2295)"><path
         d="M 0,0 V 28.532 H -79.782 V -18.036 H -48.52 L -48.52,0 Z"
         style="fill:#37d381;fill-opacity:1;fill-rule:nonzero;stroke:none"
         id="path4594"
         inkscape:connector-curvature="0" /></g><g
       id="g4596"
       transform="translate(451.5703,209.7617)"><path
         d="m 0,0 v -124.25 h 31.361 v 46.389 l -0.098,31.293 V 0 Z"
         style="fill:#26bc71;fill-opacity:1;fill-rule:nonzero;stroke:none"
         id="path4598"
         inkscape:connector-curvature="0" /></g><g
       id="g4600"
       transform="translate(531.3525,131.9004)"><path
         d="M 0,0 V 31.293 H -48.52 L -48.421,0 Z"
         style="fill:#26bc71;fill-opacity:1;fill-rule:nonzero;stroke:none"
         id="path4602"
         inkscape:connector-curvature="0" /></g><g
       id="g4604"
       transform="translate(451.5703,131.9004)"><path
         d="M 0,0 H 31.361 L 31.263,31.293 H 0 Z"
         style="fill:#15a05d;fill-opacity:1;fill-rule:nonzero;stroke:none"
         id="path4606"
         inkscape:connector-curvature="0" /></g><g
       id="g4608"
       transform="translate(352.6546,37.7084)"><path
         d="M 0,0 V 29.703 H 49.512 V 47.715 H 0 v 77.681 H 31.492 V 77.419 h 18.036 v 47.977 H 80.901 L 80.901,0 Z"
         style="fill:#7c4dd6;fill-opacity:1;fill-rule:nonzero;stroke:none"
         id="path4610"
         inkscape:connector-curvature="0" /></g><g
       id="g4612"
       transform="translate(352.6546,67.4116)"><path
         d="m 0,0 v -29.703 h 39.843 9.669 V 0 Z"
         style="fill:#6122bc;fill-opacity:1;fill-rule:nonzero;stroke:none"
         id="path4614"
         inkscape:connector-curvature="0" /></g><g
       id="g4616"
       transform="translate(384.1468,115.1277)"><path
         d="m 0,0 h -31.492 v -29.704 h 45.011 4.501 0.016 V 0 Z"
         style="fill:#6122bc;fill-opacity:1;fill-rule:nonzero;stroke:none"
         id="path4618"
         inkscape:connector-curvature="0" /></g><path
       d="m 303.307,209.762 h 31.291 V 85.512 h -31.291 z"
       style="fill:#46abbc;fill-opacity:1;fill-rule:nonzero;stroke:none"
       id="path4620"
       inkscape:connector-curvature="0" /><path
       d="M 334.598,115.167 H 303.307 V 85.512 h 31.291 z"
       style="fill:#1b89aa;fill-opacity:1;fill-rule:nonzero;stroke:none"
       id="path4622"
       inkscape:connector-curvature="0" /><path
       d="m 258.705,127.262 h -32.567 v 27.932 h 32.567 z m -58.567,-41.75 h 84.567 v 77.682 h -84.567 z"
       style="fill:#0c9ae2;fill-opacity:1;fill-rule:nonzero;stroke:none"
       id="path4624"
       inkscape:connector-curvature="0" /><g
       id="g4626"><g
         id="g4628"
         clip-path="url(#clipPath4632)"><g
           id="g4634"
           transform="translate(242.3134,153.2513)"><path
             d="m 0,0 c 6.528,0 11.839,-5.311 11.839,-11.839 0,-6.528 -5.311,-11.839 -11.839,-11.839 -6.528,0 -11.839,5.311 -11.839,11.839 C -11.839,-5.311 -6.528,0 0,0 M -16.176,-25.99 H 16.391 V 1.942 h -32.567 z"
             style="fill:#195daf;fill-opacity:1;fill-rule:nonzero;stroke:none"
             id="path4636"
             inkscape:connector-curvature="0" /></g><g
           id="g4638"
           transform="translate(242.3124,150.7505)"><path
             d="m 0,0 c 5.149,0 9.338,-4.189 9.338,-9.338 0,-5.149 -4.189,-9.338 -9.338,-9.338 -5.149,0 -9.338,4.189 -9.338,9.338 C -9.338,-4.189 -5.149,0 0,0 m 0.001,-21.177 c 6.528,0 11.839,5.311 11.839,11.839 0,6.528 -5.311,11.839 -11.839,11.839 -6.528,0 -11.839,-5.311 -11.839,-11.839 0,-6.528 5.311,-11.839 11.839,-11.839"
             style="fill:#000000;fill-opacity:1;fill-rule:nonzero;stroke:none"
             id="path4640"
             inkscape:connector-curvature="0" /></g></g></g><g
       id="g4642"
       transform="translate(41.6284,85.5117)"><path
         d="M 0,0 V 124.25 H 139.657 V 46.996 H 63.463 L 63.463,0 Z"
         style="fill:#f42f2f;fill-opacity:1;fill-rule:nonzero;stroke:none"
         id="path4644"
         inkscape:connector-curvature="0" /></g><path
       d="m 41.628,132.512 h 63.463 v 77.25 H 41.628 Z"
       style="fill:#bc0d0d;fill-opacity:1;fill-rule:nonzero;stroke:none"
       id="path4646"
       inkscape:connector-curvature="0" /><path
       d="m 105,170.694 h 42.5 v 3.036 H 105 Z"
       style="fill:#000000;fill-opacity:1;fill-rule:nonzero;stroke:none"
       id="path4648"
       inkscape:connector-curvature="0" /></g></svg>